<mxfile host="app.diagrams.net" modified="2023-10-11T05:22:58.483Z" agent="Mozilla/5.0 (Windows NT 10.0; Win64; x64; rv:109.0) Gecko/20100101 Firefox/118.0" etag="-X-NthcP2T51WKXlSlMZ" version="22.0.0" type="github">
  <diagram name="Page-1" id="oXNWPjhnlzOxRywy6CMi">
    <mxGraphModel dx="1050" dy="558" grid="1" gridSize="10" guides="1" tooltips="1" connect="1" arrows="1" fold="1" page="1" pageScale="1" pageWidth="850" pageHeight="1100" math="0" shadow="0">
      <root>
        <mxCell id="0" />
        <mxCell id="1" parent="0" />
        <mxCell id="G6FzZKToW4MEG1RDiFi3-1" value="" style="whiteSpace=wrap;html=1;aspect=fixed;" vertex="1" parent="1">
          <mxGeometry x="40" y="230" width="240" height="240" as="geometry" />
        </mxCell>
        <mxCell id="G6FzZKToW4MEG1RDiFi3-2" value="" style="whiteSpace=wrap;html=1;aspect=fixed;" vertex="1" parent="1">
          <mxGeometry x="310" y="260" width="210" height="210" as="geometry" />
        </mxCell>
        <mxCell id="G6FzZKToW4MEG1RDiFi3-3" value="" style="whiteSpace=wrap;html=1;aspect=fixed;" vertex="1" parent="1">
          <mxGeometry x="530" y="295" width="225" height="225" as="geometry" />
        </mxCell>
        <mxCell id="G6FzZKToW4MEG1RDiFi3-4" value="s" style="whiteSpace=wrap;html=1;aspect=fixed;" vertex="1" parent="1">
          <mxGeometry x="770" y="140" width="250" height="250" as="geometry" />
        </mxCell>
        <mxCell id="G6FzZKToW4MEG1RDiFi3-20" value="Table" style="shape=table;startSize=30;container=1;collapsible=0;childLayout=tableLayout;strokeColor=default;fontSize=16;" vertex="1" parent="1">
          <mxGeometry x="65" y="270" width="130" height="110" as="geometry" />
        </mxCell>
        <mxCell id="G6FzZKToW4MEG1RDiFi3-21" value="" style="shape=tableRow;horizontal=0;startSize=0;swimlaneHead=0;swimlaneBody=0;strokeColor=inherit;top=0;left=0;bottom=0;right=0;collapsible=0;dropTarget=0;fillColor=none;points=[[0,0.5],[1,0.5]];portConstraint=eastwest;fontSize=16;" vertex="1" parent="G6FzZKToW4MEG1RDiFi3-20">
          <mxGeometry y="30" width="130" height="27" as="geometry" />
        </mxCell>
        <mxCell id="G6FzZKToW4MEG1RDiFi3-22" value="M1" style="shape=partialRectangle;html=1;whiteSpace=wrap;connectable=0;strokeColor=inherit;overflow=hidden;fillColor=none;top=0;left=0;bottom=0;right=0;pointerEvents=1;fontSize=16;" vertex="1" parent="G6FzZKToW4MEG1RDiFi3-21">
          <mxGeometry width="40" height="27" as="geometry">
            <mxRectangle width="40" height="27" as="alternateBounds" />
          </mxGeometry>
        </mxCell>
        <mxCell id="G6FzZKToW4MEG1RDiFi3-23" value="K1" style="shape=partialRectangle;html=1;whiteSpace=wrap;connectable=0;strokeColor=inherit;overflow=hidden;fillColor=none;top=0;left=0;bottom=0;right=0;pointerEvents=1;fontSize=16;" vertex="1" parent="G6FzZKToW4MEG1RDiFi3-21">
          <mxGeometry x="40" width="47" height="27" as="geometry">
            <mxRectangle width="47" height="27" as="alternateBounds" />
          </mxGeometry>
        </mxCell>
        <mxCell id="G6FzZKToW4MEG1RDiFi3-24" value="V1" style="shape=partialRectangle;html=1;whiteSpace=wrap;connectable=0;strokeColor=inherit;overflow=hidden;fillColor=none;top=0;left=0;bottom=0;right=0;pointerEvents=1;fontSize=16;" vertex="1" parent="G6FzZKToW4MEG1RDiFi3-21">
          <mxGeometry x="87" width="43" height="27" as="geometry">
            <mxRectangle width="43" height="27" as="alternateBounds" />
          </mxGeometry>
        </mxCell>
        <mxCell id="G6FzZKToW4MEG1RDiFi3-25" value="" style="shape=tableRow;horizontal=0;startSize=0;swimlaneHead=0;swimlaneBody=0;strokeColor=inherit;top=0;left=0;bottom=0;right=0;collapsible=0;dropTarget=0;fillColor=none;points=[[0,0.5],[1,0.5]];portConstraint=eastwest;fontSize=16;" vertex="1" parent="G6FzZKToW4MEG1RDiFi3-20">
          <mxGeometry y="57" width="130" height="26" as="geometry" />
        </mxCell>
        <mxCell id="G6FzZKToW4MEG1RDiFi3-26" value="M1" style="shape=partialRectangle;html=1;whiteSpace=wrap;connectable=0;strokeColor=inherit;overflow=hidden;fillColor=none;top=0;left=0;bottom=0;right=0;pointerEvents=1;fontSize=16;" vertex="1" parent="G6FzZKToW4MEG1RDiFi3-25">
          <mxGeometry width="40" height="26" as="geometry">
            <mxRectangle width="40" height="26" as="alternateBounds" />
          </mxGeometry>
        </mxCell>
        <mxCell id="G6FzZKToW4MEG1RDiFi3-27" value="K2" style="shape=partialRectangle;html=1;whiteSpace=wrap;connectable=0;strokeColor=inherit;overflow=hidden;fillColor=none;top=0;left=0;bottom=0;right=0;pointerEvents=1;fontSize=16;" vertex="1" parent="G6FzZKToW4MEG1RDiFi3-25">
          <mxGeometry x="40" width="47" height="26" as="geometry">
            <mxRectangle width="47" height="26" as="alternateBounds" />
          </mxGeometry>
        </mxCell>
        <mxCell id="G6FzZKToW4MEG1RDiFi3-28" value="V2" style="shape=partialRectangle;html=1;whiteSpace=wrap;connectable=0;strokeColor=inherit;overflow=hidden;fillColor=none;top=0;left=0;bottom=0;right=0;pointerEvents=1;fontSize=16;" vertex="1" parent="G6FzZKToW4MEG1RDiFi3-25">
          <mxGeometry x="87" width="43" height="26" as="geometry">
            <mxRectangle width="43" height="26" as="alternateBounds" />
          </mxGeometry>
        </mxCell>
        <mxCell id="G6FzZKToW4MEG1RDiFi3-29" value="" style="shape=tableRow;horizontal=0;startSize=0;swimlaneHead=0;swimlaneBody=0;strokeColor=inherit;top=0;left=0;bottom=0;right=0;collapsible=0;dropTarget=0;fillColor=none;points=[[0,0.5],[1,0.5]];portConstraint=eastwest;fontSize=16;" vertex="1" parent="G6FzZKToW4MEG1RDiFi3-20">
          <mxGeometry y="83" width="130" height="27" as="geometry" />
        </mxCell>
        <mxCell id="G6FzZKToW4MEG1RDiFi3-30" value="" style="shape=partialRectangle;html=1;whiteSpace=wrap;connectable=0;strokeColor=inherit;overflow=hidden;fillColor=none;top=0;left=0;bottom=0;right=0;pointerEvents=1;fontSize=16;" vertex="1" parent="G6FzZKToW4MEG1RDiFi3-29">
          <mxGeometry width="40" height="27" as="geometry">
            <mxRectangle width="40" height="27" as="alternateBounds" />
          </mxGeometry>
        </mxCell>
        <mxCell id="G6FzZKToW4MEG1RDiFi3-31" value="" style="shape=partialRectangle;html=1;whiteSpace=wrap;connectable=0;strokeColor=inherit;overflow=hidden;fillColor=none;top=0;left=0;bottom=0;right=0;pointerEvents=1;fontSize=16;" vertex="1" parent="G6FzZKToW4MEG1RDiFi3-29">
          <mxGeometry x="40" width="47" height="27" as="geometry">
            <mxRectangle width="47" height="27" as="alternateBounds" />
          </mxGeometry>
        </mxCell>
        <mxCell id="G6FzZKToW4MEG1RDiFi3-32" value="" style="shape=partialRectangle;html=1;whiteSpace=wrap;connectable=0;strokeColor=inherit;overflow=hidden;fillColor=none;top=0;left=0;bottom=0;right=0;pointerEvents=1;fontSize=16;" vertex="1" parent="G6FzZKToW4MEG1RDiFi3-29">
          <mxGeometry x="87" width="43" height="27" as="geometry">
            <mxRectangle width="43" height="27" as="alternateBounds" />
          </mxGeometry>
        </mxCell>
        <mxCell id="G6FzZKToW4MEG1RDiFi3-33" value="Table" style="shape=table;startSize=30;container=1;collapsible=0;childLayout=tableLayout;strokeColor=default;fontSize=16;" vertex="1" parent="1">
          <mxGeometry x="335" y="290" width="130" height="110" as="geometry" />
        </mxCell>
        <mxCell id="G6FzZKToW4MEG1RDiFi3-34" value="" style="shape=tableRow;horizontal=0;startSize=0;swimlaneHead=0;swimlaneBody=0;strokeColor=inherit;top=0;left=0;bottom=0;right=0;collapsible=0;dropTarget=0;fillColor=none;points=[[0,0.5],[1,0.5]];portConstraint=eastwest;fontSize=16;" vertex="1" parent="G6FzZKToW4MEG1RDiFi3-33">
          <mxGeometry y="30" width="130" height="27" as="geometry" />
        </mxCell>
        <mxCell id="G6FzZKToW4MEG1RDiFi3-35" value="M1" style="shape=partialRectangle;html=1;whiteSpace=wrap;connectable=0;strokeColor=inherit;overflow=hidden;fillColor=none;top=0;left=0;bottom=0;right=0;pointerEvents=1;fontSize=16;" vertex="1" parent="G6FzZKToW4MEG1RDiFi3-34">
          <mxGeometry width="40" height="27" as="geometry">
            <mxRectangle width="40" height="27" as="alternateBounds" />
          </mxGeometry>
        </mxCell>
        <mxCell id="G6FzZKToW4MEG1RDiFi3-36" value="K1" style="shape=partialRectangle;html=1;whiteSpace=wrap;connectable=0;strokeColor=inherit;overflow=hidden;fillColor=none;top=0;left=0;bottom=0;right=0;pointerEvents=1;fontSize=16;" vertex="1" parent="G6FzZKToW4MEG1RDiFi3-34">
          <mxGeometry x="40" width="47" height="27" as="geometry">
            <mxRectangle width="47" height="27" as="alternateBounds" />
          </mxGeometry>
        </mxCell>
        <mxCell id="G6FzZKToW4MEG1RDiFi3-37" value="V1" style="shape=partialRectangle;html=1;whiteSpace=wrap;connectable=0;strokeColor=inherit;overflow=hidden;fillColor=none;top=0;left=0;bottom=0;right=0;pointerEvents=1;fontSize=16;" vertex="1" parent="G6FzZKToW4MEG1RDiFi3-34">
          <mxGeometry x="87" width="43" height="27" as="geometry">
            <mxRectangle width="43" height="27" as="alternateBounds" />
          </mxGeometry>
        </mxCell>
        <mxCell id="G6FzZKToW4MEG1RDiFi3-38" value="" style="shape=tableRow;horizontal=0;startSize=0;swimlaneHead=0;swimlaneBody=0;strokeColor=inherit;top=0;left=0;bottom=0;right=0;collapsible=0;dropTarget=0;fillColor=none;points=[[0,0.5],[1,0.5]];portConstraint=eastwest;fontSize=16;" vertex="1" parent="G6FzZKToW4MEG1RDiFi3-33">
          <mxGeometry y="57" width="130" height="26" as="geometry" />
        </mxCell>
        <mxCell id="G6FzZKToW4MEG1RDiFi3-39" value="M1" style="shape=partialRectangle;html=1;whiteSpace=wrap;connectable=0;strokeColor=inherit;overflow=hidden;fillColor=none;top=0;left=0;bottom=0;right=0;pointerEvents=1;fontSize=16;" vertex="1" parent="G6FzZKToW4MEG1RDiFi3-38">
          <mxGeometry width="40" height="26" as="geometry">
            <mxRectangle width="40" height="26" as="alternateBounds" />
          </mxGeometry>
        </mxCell>
        <mxCell id="G6FzZKToW4MEG1RDiFi3-40" value="K2" style="shape=partialRectangle;html=1;whiteSpace=wrap;connectable=0;strokeColor=inherit;overflow=hidden;fillColor=none;top=0;left=0;bottom=0;right=0;pointerEvents=1;fontSize=16;" vertex="1" parent="G6FzZKToW4MEG1RDiFi3-38">
          <mxGeometry x="40" width="47" height="26" as="geometry">
            <mxRectangle width="47" height="26" as="alternateBounds" />
          </mxGeometry>
        </mxCell>
        <mxCell id="G6FzZKToW4MEG1RDiFi3-41" value="V2" style="shape=partialRectangle;html=1;whiteSpace=wrap;connectable=0;strokeColor=inherit;overflow=hidden;fillColor=none;top=0;left=0;bottom=0;right=0;pointerEvents=1;fontSize=16;" vertex="1" parent="G6FzZKToW4MEG1RDiFi3-38">
          <mxGeometry x="87" width="43" height="26" as="geometry">
            <mxRectangle width="43" height="26" as="alternateBounds" />
          </mxGeometry>
        </mxCell>
        <mxCell id="G6FzZKToW4MEG1RDiFi3-42" value="" style="shape=tableRow;horizontal=0;startSize=0;swimlaneHead=0;swimlaneBody=0;strokeColor=inherit;top=0;left=0;bottom=0;right=0;collapsible=0;dropTarget=0;fillColor=none;points=[[0,0.5],[1,0.5]];portConstraint=eastwest;fontSize=16;" vertex="1" parent="G6FzZKToW4MEG1RDiFi3-33">
          <mxGeometry y="83" width="130" height="27" as="geometry" />
        </mxCell>
        <mxCell id="G6FzZKToW4MEG1RDiFi3-43" value="M1" style="shape=partialRectangle;html=1;whiteSpace=wrap;connectable=0;strokeColor=inherit;overflow=hidden;fillColor=none;top=0;left=0;bottom=0;right=0;pointerEvents=1;fontSize=16;" vertex="1" parent="G6FzZKToW4MEG1RDiFi3-42">
          <mxGeometry width="40" height="27" as="geometry">
            <mxRectangle width="40" height="27" as="alternateBounds" />
          </mxGeometry>
        </mxCell>
        <mxCell id="G6FzZKToW4MEG1RDiFi3-44" value="K3" style="shape=partialRectangle;html=1;whiteSpace=wrap;connectable=0;strokeColor=inherit;overflow=hidden;fillColor=none;top=0;left=0;bottom=0;right=0;pointerEvents=1;fontSize=16;" vertex="1" parent="G6FzZKToW4MEG1RDiFi3-42">
          <mxGeometry x="40" width="47" height="27" as="geometry">
            <mxRectangle width="47" height="27" as="alternateBounds" />
          </mxGeometry>
        </mxCell>
        <mxCell id="G6FzZKToW4MEG1RDiFi3-45" value="V3" style="shape=partialRectangle;html=1;whiteSpace=wrap;connectable=0;strokeColor=inherit;overflow=hidden;fillColor=none;top=0;left=0;bottom=0;right=0;pointerEvents=1;fontSize=16;" vertex="1" parent="G6FzZKToW4MEG1RDiFi3-42">
          <mxGeometry x="87" width="43" height="27" as="geometry">
            <mxRectangle width="43" height="27" as="alternateBounds" />
          </mxGeometry>
        </mxCell>
        <mxCell id="G6FzZKToW4MEG1RDiFi3-46" value="Table" style="shape=table;startSize=30;container=1;collapsible=0;childLayout=tableLayout;strokeColor=default;fontSize=16;" vertex="1" parent="1">
          <mxGeometry x="550" y="330" width="130" height="110" as="geometry" />
        </mxCell>
        <mxCell id="G6FzZKToW4MEG1RDiFi3-47" value="" style="shape=tableRow;horizontal=0;startSize=0;swimlaneHead=0;swimlaneBody=0;strokeColor=inherit;top=0;left=0;bottom=0;right=0;collapsible=0;dropTarget=0;fillColor=none;points=[[0,0.5],[1,0.5]];portConstraint=eastwest;fontSize=16;" vertex="1" parent="G6FzZKToW4MEG1RDiFi3-46">
          <mxGeometry y="30" width="130" height="27" as="geometry" />
        </mxCell>
        <mxCell id="G6FzZKToW4MEG1RDiFi3-48" value="M1" style="shape=partialRectangle;html=1;whiteSpace=wrap;connectable=0;strokeColor=inherit;overflow=hidden;fillColor=none;top=0;left=0;bottom=0;right=0;pointerEvents=1;fontSize=16;" vertex="1" parent="G6FzZKToW4MEG1RDiFi3-47">
          <mxGeometry width="40" height="27" as="geometry">
            <mxRectangle width="40" height="27" as="alternateBounds" />
          </mxGeometry>
        </mxCell>
        <mxCell id="G6FzZKToW4MEG1RDiFi3-49" value="K1" style="shape=partialRectangle;html=1;whiteSpace=wrap;connectable=0;strokeColor=inherit;overflow=hidden;fillColor=none;top=0;left=0;bottom=0;right=0;pointerEvents=1;fontSize=16;" vertex="1" parent="G6FzZKToW4MEG1RDiFi3-47">
          <mxGeometry x="40" width="47" height="27" as="geometry">
            <mxRectangle width="47" height="27" as="alternateBounds" />
          </mxGeometry>
        </mxCell>
        <mxCell id="G6FzZKToW4MEG1RDiFi3-50" value="V1" style="shape=partialRectangle;html=1;whiteSpace=wrap;connectable=0;strokeColor=inherit;overflow=hidden;fillColor=none;top=0;left=0;bottom=0;right=0;pointerEvents=1;fontSize=16;" vertex="1" parent="G6FzZKToW4MEG1RDiFi3-47">
          <mxGeometry x="87" width="43" height="27" as="geometry">
            <mxRectangle width="43" height="27" as="alternateBounds" />
          </mxGeometry>
        </mxCell>
        <mxCell id="G6FzZKToW4MEG1RDiFi3-51" value="" style="shape=tableRow;horizontal=0;startSize=0;swimlaneHead=0;swimlaneBody=0;strokeColor=inherit;top=0;left=0;bottom=0;right=0;collapsible=0;dropTarget=0;fillColor=none;points=[[0,0.5],[1,0.5]];portConstraint=eastwest;fontSize=16;" vertex="1" parent="G6FzZKToW4MEG1RDiFi3-46">
          <mxGeometry y="57" width="130" height="26" as="geometry" />
        </mxCell>
        <mxCell id="G6FzZKToW4MEG1RDiFi3-52" value="M1" style="shape=partialRectangle;html=1;whiteSpace=wrap;connectable=0;strokeColor=inherit;overflow=hidden;fillColor=none;top=0;left=0;bottom=0;right=0;pointerEvents=1;fontSize=16;" vertex="1" parent="G6FzZKToW4MEG1RDiFi3-51">
          <mxGeometry width="40" height="26" as="geometry">
            <mxRectangle width="40" height="26" as="alternateBounds" />
          </mxGeometry>
        </mxCell>
        <mxCell id="G6FzZKToW4MEG1RDiFi3-53" value="K2" style="shape=partialRectangle;html=1;whiteSpace=wrap;connectable=0;strokeColor=inherit;overflow=hidden;fillColor=none;top=0;left=0;bottom=0;right=0;pointerEvents=1;fontSize=16;" vertex="1" parent="G6FzZKToW4MEG1RDiFi3-51">
          <mxGeometry x="40" width="47" height="26" as="geometry">
            <mxRectangle width="47" height="26" as="alternateBounds" />
          </mxGeometry>
        </mxCell>
        <mxCell id="G6FzZKToW4MEG1RDiFi3-54" value="V2" style="shape=partialRectangle;html=1;whiteSpace=wrap;connectable=0;strokeColor=inherit;overflow=hidden;fillColor=none;top=0;left=0;bottom=0;right=0;pointerEvents=1;fontSize=16;" vertex="1" parent="G6FzZKToW4MEG1RDiFi3-51">
          <mxGeometry x="87" width="43" height="26" as="geometry">
            <mxRectangle width="43" height="26" as="alternateBounds" />
          </mxGeometry>
        </mxCell>
        <mxCell id="G6FzZKToW4MEG1RDiFi3-55" value="" style="shape=tableRow;horizontal=0;startSize=0;swimlaneHead=0;swimlaneBody=0;strokeColor=inherit;top=0;left=0;bottom=0;right=0;collapsible=0;dropTarget=0;fillColor=none;points=[[0,0.5],[1,0.5]];portConstraint=eastwest;fontSize=16;" vertex="1" parent="G6FzZKToW4MEG1RDiFi3-46">
          <mxGeometry y="83" width="130" height="27" as="geometry" />
        </mxCell>
        <mxCell id="G6FzZKToW4MEG1RDiFi3-56" value="M1" style="shape=partialRectangle;html=1;whiteSpace=wrap;connectable=0;strokeColor=inherit;overflow=hidden;fillColor=none;top=0;left=0;bottom=0;right=0;pointerEvents=1;fontSize=16;" vertex="1" parent="G6FzZKToW4MEG1RDiFi3-55">
          <mxGeometry width="40" height="27" as="geometry">
            <mxRectangle width="40" height="27" as="alternateBounds" />
          </mxGeometry>
        </mxCell>
        <mxCell id="G6FzZKToW4MEG1RDiFi3-57" value="K3" style="shape=partialRectangle;html=1;whiteSpace=wrap;connectable=0;strokeColor=inherit;overflow=hidden;fillColor=none;top=0;left=0;bottom=0;right=0;pointerEvents=1;fontSize=16;" vertex="1" parent="G6FzZKToW4MEG1RDiFi3-55">
          <mxGeometry x="40" width="47" height="27" as="geometry">
            <mxRectangle width="47" height="27" as="alternateBounds" />
          </mxGeometry>
        </mxCell>
        <mxCell id="G6FzZKToW4MEG1RDiFi3-58" value="V3" style="shape=partialRectangle;html=1;whiteSpace=wrap;connectable=0;strokeColor=inherit;overflow=hidden;fillColor=none;top=0;left=0;bottom=0;right=0;pointerEvents=1;fontSize=16;" vertex="1" parent="G6FzZKToW4MEG1RDiFi3-55">
          <mxGeometry x="87" width="43" height="27" as="geometry">
            <mxRectangle width="43" height="27" as="alternateBounds" />
          </mxGeometry>
        </mxCell>
        <mxCell id="G6FzZKToW4MEG1RDiFi3-59" value="Table" style="shape=table;startSize=30;container=1;collapsible=0;childLayout=tableLayout;strokeColor=default;fontSize=16;" vertex="1" parent="1">
          <mxGeometry x="785" y="180" width="130" height="115" as="geometry" />
        </mxCell>
        <mxCell id="G6FzZKToW4MEG1RDiFi3-60" value="" style="shape=tableRow;horizontal=0;startSize=0;swimlaneHead=0;swimlaneBody=0;strokeColor=inherit;top=0;left=0;bottom=0;right=0;collapsible=0;dropTarget=0;fillColor=none;points=[[0,0.5],[1,0.5]];portConstraint=eastwest;fontSize=16;" vertex="1" parent="G6FzZKToW4MEG1RDiFi3-59">
          <mxGeometry y="30" width="130" height="27" as="geometry" />
        </mxCell>
        <mxCell id="G6FzZKToW4MEG1RDiFi3-61" value="M1" style="shape=partialRectangle;html=1;whiteSpace=wrap;connectable=0;strokeColor=inherit;overflow=hidden;fillColor=none;top=0;left=0;bottom=0;right=0;pointerEvents=1;fontSize=16;" vertex="1" parent="G6FzZKToW4MEG1RDiFi3-60">
          <mxGeometry width="40" height="27" as="geometry">
            <mxRectangle width="40" height="27" as="alternateBounds" />
          </mxGeometry>
        </mxCell>
        <mxCell id="G6FzZKToW4MEG1RDiFi3-62" value="K1" style="shape=partialRectangle;html=1;whiteSpace=wrap;connectable=0;strokeColor=inherit;overflow=hidden;fillColor=none;top=0;left=0;bottom=0;right=0;pointerEvents=1;fontSize=16;" vertex="1" parent="G6FzZKToW4MEG1RDiFi3-60">
          <mxGeometry x="40" width="47" height="27" as="geometry">
            <mxRectangle width="47" height="27" as="alternateBounds" />
          </mxGeometry>
        </mxCell>
        <mxCell id="G6FzZKToW4MEG1RDiFi3-63" value="V1" style="shape=partialRectangle;html=1;whiteSpace=wrap;connectable=0;strokeColor=inherit;overflow=hidden;fillColor=none;top=0;left=0;bottom=0;right=0;pointerEvents=1;fontSize=16;" vertex="1" parent="G6FzZKToW4MEG1RDiFi3-60">
          <mxGeometry x="87" width="43" height="27" as="geometry">
            <mxRectangle width="43" height="27" as="alternateBounds" />
          </mxGeometry>
        </mxCell>
        <mxCell id="G6FzZKToW4MEG1RDiFi3-64" value="" style="shape=tableRow;horizontal=0;startSize=0;swimlaneHead=0;swimlaneBody=0;strokeColor=inherit;top=0;left=0;bottom=0;right=0;collapsible=0;dropTarget=0;fillColor=none;points=[[0,0.5],[1,0.5]];portConstraint=eastwest;fontSize=16;" vertex="1" parent="G6FzZKToW4MEG1RDiFi3-59">
          <mxGeometry y="57" width="130" height="26" as="geometry" />
        </mxCell>
        <mxCell id="G6FzZKToW4MEG1RDiFi3-65" value="M1" style="shape=partialRectangle;html=1;whiteSpace=wrap;connectable=0;strokeColor=inherit;overflow=hidden;fillColor=none;top=0;left=0;bottom=0;right=0;pointerEvents=1;fontSize=16;" vertex="1" parent="G6FzZKToW4MEG1RDiFi3-64">
          <mxGeometry width="40" height="26" as="geometry">
            <mxRectangle width="40" height="26" as="alternateBounds" />
          </mxGeometry>
        </mxCell>
        <mxCell id="G6FzZKToW4MEG1RDiFi3-66" value="K2" style="shape=partialRectangle;html=1;whiteSpace=wrap;connectable=0;strokeColor=inherit;overflow=hidden;fillColor=none;top=0;left=0;bottom=0;right=0;pointerEvents=1;fontSize=16;" vertex="1" parent="G6FzZKToW4MEG1RDiFi3-64">
          <mxGeometry x="40" width="47" height="26" as="geometry">
            <mxRectangle width="47" height="26" as="alternateBounds" />
          </mxGeometry>
        </mxCell>
        <mxCell id="G6FzZKToW4MEG1RDiFi3-67" value="V2" style="shape=partialRectangle;html=1;whiteSpace=wrap;connectable=0;strokeColor=inherit;overflow=hidden;fillColor=none;top=0;left=0;bottom=0;right=0;pointerEvents=1;fontSize=16;" vertex="1" parent="G6FzZKToW4MEG1RDiFi3-64">
          <mxGeometry x="87" width="43" height="26" as="geometry">
            <mxRectangle width="43" height="26" as="alternateBounds" />
          </mxGeometry>
        </mxCell>
        <mxCell id="G6FzZKToW4MEG1RDiFi3-68" value="" style="shape=tableRow;horizontal=0;startSize=0;swimlaneHead=0;swimlaneBody=0;strokeColor=inherit;top=0;left=0;bottom=0;right=0;collapsible=0;dropTarget=0;fillColor=none;points=[[0,0.5],[1,0.5]];portConstraint=eastwest;fontSize=16;" vertex="1" parent="G6FzZKToW4MEG1RDiFi3-59">
          <mxGeometry y="83" width="130" height="32" as="geometry" />
        </mxCell>
        <mxCell id="G6FzZKToW4MEG1RDiFi3-69" value="" style="shape=partialRectangle;html=1;whiteSpace=wrap;connectable=0;strokeColor=inherit;overflow=hidden;fillColor=none;top=0;left=0;bottom=0;right=0;pointerEvents=1;fontSize=16;" vertex="1" parent="G6FzZKToW4MEG1RDiFi3-68">
          <mxGeometry width="40" height="32" as="geometry">
            <mxRectangle width="40" height="32" as="alternateBounds" />
          </mxGeometry>
        </mxCell>
        <mxCell id="G6FzZKToW4MEG1RDiFi3-70" value="" style="shape=partialRectangle;html=1;whiteSpace=wrap;connectable=0;strokeColor=inherit;overflow=hidden;fillColor=none;top=0;left=0;bottom=0;right=0;pointerEvents=1;fontSize=16;" vertex="1" parent="G6FzZKToW4MEG1RDiFi3-68">
          <mxGeometry x="40" width="47" height="32" as="geometry">
            <mxRectangle width="47" height="32" as="alternateBounds" />
          </mxGeometry>
        </mxCell>
        <mxCell id="G6FzZKToW4MEG1RDiFi3-71" value="" style="shape=partialRectangle;html=1;whiteSpace=wrap;connectable=0;strokeColor=inherit;overflow=hidden;fillColor=none;top=0;left=0;bottom=0;right=0;pointerEvents=1;fontSize=16;" vertex="1" parent="G6FzZKToW4MEG1RDiFi3-68">
          <mxGeometry x="87" width="43" height="32" as="geometry">
            <mxRectangle width="43" height="32" as="alternateBounds" />
          </mxGeometry>
        </mxCell>
        <mxCell id="G6FzZKToW4MEG1RDiFi3-72" value="&lt;b&gt;NMS1&lt;/b&gt;" style="text;html=1;strokeColor=none;fillColor=none;align=center;verticalAlign=middle;whiteSpace=wrap;rounded=0;" vertex="1" parent="1">
          <mxGeometry x="99" y="240" width="60" height="30" as="geometry" />
        </mxCell>
        <mxCell id="G6FzZKToW4MEG1RDiFi3-73" value="&lt;b&gt;NMS2&lt;/b&gt;" style="text;html=1;strokeColor=none;fillColor=none;align=center;verticalAlign=middle;whiteSpace=wrap;rounded=0;" vertex="1" parent="1">
          <mxGeometry x="340" y="260" width="60" height="30" as="geometry" />
        </mxCell>
        <mxCell id="G6FzZKToW4MEG1RDiFi3-74" value="&lt;b&gt;SMA1&lt;/b&gt;" style="text;html=1;strokeColor=none;fillColor=none;align=center;verticalAlign=middle;whiteSpace=wrap;rounded=0;" vertex="1" parent="1">
          <mxGeometry x="570" y="290" width="60" height="30" as="geometry" />
        </mxCell>
        <mxCell id="G6FzZKToW4MEG1RDiFi3-75" value="&lt;b&gt;SMA2&lt;/b&gt;" style="text;html=1;strokeColor=none;fillColor=none;align=center;verticalAlign=middle;whiteSpace=wrap;rounded=0;" vertex="1" parent="1">
          <mxGeometry x="790" y="150" width="60" height="30" as="geometry" />
        </mxCell>
        <mxCell id="G6FzZKToW4MEG1RDiFi3-76" value="Mr. Jinx" style="rounded=0;whiteSpace=wrap;html=1;" vertex="1" parent="1">
          <mxGeometry x="375" y="50" width="120" height="60" as="geometry" />
        </mxCell>
        <mxCell id="G6FzZKToW4MEG1RDiFi3-77" value="" style="endArrow=classic;startArrow=classic;html=1;rounded=0;exitX=0.5;exitY=0;exitDx=0;exitDy=0;" edge="1" parent="1" source="G6FzZKToW4MEG1RDiFi3-1">
          <mxGeometry width="50" height="50" relative="1" as="geometry">
            <mxPoint x="320" y="130" as="sourcePoint" />
            <mxPoint x="370" y="80" as="targetPoint" />
          </mxGeometry>
        </mxCell>
        <mxCell id="G6FzZKToW4MEG1RDiFi3-78" value="" style="endArrow=classic;startArrow=classic;html=1;rounded=0;exitX=0.5;exitY=0;exitDx=0;exitDy=0;entryX=0.15;entryY=1.017;entryDx=0;entryDy=0;entryPerimeter=0;" edge="1" parent="1" source="G6FzZKToW4MEG1RDiFi3-2" target="G6FzZKToW4MEG1RDiFi3-76">
          <mxGeometry width="50" height="50" relative="1" as="geometry">
            <mxPoint x="140" y="240" as="sourcePoint" />
            <mxPoint x="390" y="120" as="targetPoint" />
          </mxGeometry>
        </mxCell>
        <mxCell id="G6FzZKToW4MEG1RDiFi3-79" value="" style="endArrow=classic;startArrow=classic;html=1;rounded=0;exitX=0;exitY=0;exitDx=0;exitDy=0;" edge="1" parent="1" source="G6FzZKToW4MEG1RDiFi3-74">
          <mxGeometry width="50" height="50" relative="1" as="geometry">
            <mxPoint x="400" y="220" as="sourcePoint" />
            <mxPoint x="440" y="110" as="targetPoint" />
          </mxGeometry>
        </mxCell>
        <mxCell id="G6FzZKToW4MEG1RDiFi3-80" value="" style="endArrow=classic;startArrow=classic;html=1;rounded=0;" edge="1" parent="1" source="G6FzZKToW4MEG1RDiFi3-75">
          <mxGeometry width="50" height="50" relative="1" as="geometry">
            <mxPoint x="585" y="210" as="sourcePoint" />
            <mxPoint x="495" y="90" as="targetPoint" />
          </mxGeometry>
        </mxCell>
        <mxCell id="G6FzZKToW4MEG1RDiFi3-82" value="Count = 5" style="text;html=1;strokeColor=none;fillColor=none;align=center;verticalAlign=middle;whiteSpace=wrap;rounded=0;" vertex="1" parent="1">
          <mxGeometry x="99" y="420" width="60" height="30" as="geometry" />
        </mxCell>
        <mxCell id="G6FzZKToW4MEG1RDiFi3-83" value="Count = 6" style="text;html=1;strokeColor=none;fillColor=none;align=center;verticalAlign=middle;whiteSpace=wrap;rounded=0;" vertex="1" parent="1">
          <mxGeometry x="365" y="430" width="60" height="30" as="geometry" />
        </mxCell>
        <mxCell id="G6FzZKToW4MEG1RDiFi3-84" value="Count = 4" style="text;html=1;strokeColor=none;fillColor=none;align=center;verticalAlign=middle;whiteSpace=wrap;rounded=0;" vertex="1" parent="1">
          <mxGeometry x="610" y="480" width="60" height="30" as="geometry" />
        </mxCell>
        <mxCell id="G6FzZKToW4MEG1RDiFi3-85" value="Count = 2" style="text;html=1;strokeColor=none;fillColor=none;align=center;verticalAlign=middle;whiteSpace=wrap;rounded=0;" vertex="1" parent="1">
          <mxGeometry x="865" y="345" width="60" height="30" as="geometry" />
        </mxCell>
        <mxCell id="G6FzZKToW4MEG1RDiFi3-86" value="Threshold = 5" style="text;html=1;strokeColor=none;fillColor=none;align=center;verticalAlign=middle;whiteSpace=wrap;rounded=0;" vertex="1" parent="1">
          <mxGeometry x="80" y="390" width="100" height="30" as="geometry" />
        </mxCell>
        <mxCell id="G6FzZKToW4MEG1RDiFi3-87" value="Threshold = 5" style="text;html=1;strokeColor=none;fillColor=none;align=center;verticalAlign=middle;whiteSpace=wrap;rounded=0;" vertex="1" parent="1">
          <mxGeometry x="350" y="400" width="100" height="30" as="geometry" />
        </mxCell>
        <mxCell id="G6FzZKToW4MEG1RDiFi3-88" value="Threshold = 50" style="text;html=1;strokeColor=none;fillColor=none;align=center;verticalAlign=middle;whiteSpace=wrap;rounded=0;" vertex="1" parent="1">
          <mxGeometry x="580" y="450" width="100" height="30" as="geometry" />
        </mxCell>
        <mxCell id="G6FzZKToW4MEG1RDiFi3-89" value="Threshold = 50" style="text;html=1;strokeColor=none;fillColor=none;align=center;verticalAlign=middle;whiteSpace=wrap;rounded=0;" vertex="1" parent="1">
          <mxGeometry x="845" y="310" width="100" height="30" as="geometry" />
        </mxCell>
      </root>
    </mxGraphModel>
  </diagram>
</mxfile>
